<svg width="256" height="68" viewBox="0 0 256 68" fill="none" xmlns="http://www.w3.org/2000/svg">
<path d="M9.88 18.796L6.772 21.988V27H3.132V7.4H6.772V17.452L16.46 7.4H20.548L12.316 16.164L21.052 27H16.796L9.88 18.796ZM36.5942 19.608C36.5942 19.8507 36.5755 20.196 36.5382 20.644H24.8062C25.0115 21.7453 25.5435 22.6227 26.4022 23.276C27.2795 23.9107 28.3622 24.228 29.6502 24.228C31.2929 24.228 32.6462 23.6867 33.7102 22.604L35.5862 24.76C34.9142 25.5627 34.0649 26.1693 33.0382 26.58C32.0115 26.9907 30.8542 27.196 29.5662 27.196C27.9235 27.196 26.4769 26.8693 25.2262 26.216C23.9755 25.5627 23.0049 24.6573 22.3142 23.5C21.6422 22.324 21.3062 20.9987 21.3062 19.524C21.3062 18.068 21.6329 16.7613 22.2862 15.604C22.9582 14.428 23.8822 13.5133 25.0582 12.86C26.2342 12.2067 27.5595 11.88 29.0342 11.88C30.4902 11.88 31.7875 12.2067 32.9262 12.86C34.0835 13.4947 34.9795 14.4 35.6142 15.576C36.2675 16.7333 36.5942 18.0773 36.5942 19.608ZM29.0342 14.68C27.9142 14.68 26.9622 15.016 26.1782 15.688C25.4129 16.3413 24.9462 17.2187 24.7782 18.32H33.2622C33.1129 17.2373 32.6555 16.36 31.8902 15.688C31.1249 15.016 30.1729 14.68 29.0342 14.68ZM48.4402 11.88C50.3255 11.88 51.8375 12.4307 52.9762 13.532C54.1148 14.6333 54.6842 16.2667 54.6842 18.432V27H51.1842V18.88C51.1842 17.5733 50.8762 16.5933 50.2602 15.94C49.6442 15.268 48.7668 14.932 47.6282 14.932C46.3402 14.932 45.3228 15.324 44.5762 16.108C43.8295 16.8733 43.4562 17.984 43.4562 19.44V27H39.9562V12.048H43.2882V13.98C43.8668 13.2893 44.5948 12.7667 45.4722 12.412C46.3495 12.0573 47.3388 11.88 48.4402 11.88ZM67.6081 11.88C69.4935 11.88 71.0055 12.4307 72.1441 13.532C73.2828 14.6333 73.8521 16.2667 73.8521 18.432V27H70.3521V18.88C70.3521 17.5733 70.0441 16.5933 69.4281 15.94C68.8121 15.268 67.9348 14.932 66.7961 14.932C65.5081 14.932 64.4908 15.324 63.7441 16.108C62.9975 16.8733 62.6241 17.984 62.6241 19.44V27H59.1241V12.048H62.4561V13.98C63.0348 13.2893 63.7628 12.7667 64.6401 12.412C65.5175 12.0573 66.5068 11.88 67.6081 11.88ZM92.0187 12.048L85.0187 28.204C84.3653 29.828 83.572 30.9667 82.6387 31.62C81.7053 32.292 80.576 32.628 79.2507 32.628C78.504 32.628 77.7667 32.5067 77.0387 32.264C76.3107 32.0213 75.7133 31.6853 75.2467 31.256L76.6467 28.68C76.9827 28.9973 77.3747 29.2493 77.8227 29.436C78.2893 29.6227 78.756 29.716 79.2227 29.716C79.8387 29.716 80.3427 29.5573 80.7347 29.24C81.1453 28.9227 81.5187 28.3907 81.8547 27.644L82.1067 27.056L75.5827 12.048H79.2227L83.9267 23.108L88.6587 12.048H92.0187ZM98.6348 27.196C97.4214 27.196 96.2361 27.0373 95.0788 26.72C93.9214 26.4027 92.9974 26.0013 92.3068 25.516L93.6508 22.856C94.3228 23.304 95.1254 23.668 96.0588 23.948C97.0108 24.2093 97.9441 24.34 98.8588 24.34C100.949 24.34 101.995 23.7893 101.995 22.688C101.995 22.1653 101.724 21.8013 101.183 21.596C100.66 21.3907 99.8108 21.1947 98.6348 21.008C97.4028 20.8213 96.3948 20.6067 95.6108 20.364C94.8454 20.1213 94.1734 19.7013 93.5948 19.104C93.0348 18.488 92.7548 17.6387 92.7548 16.556C92.7548 15.1373 93.3428 14.008 94.5188 13.168C95.7134 12.3093 97.3188 11.88 99.3348 11.88C100.361 11.88 101.388 12.0013 102.415 12.244C103.441 12.468 104.281 12.776 104.935 13.168L103.591 15.828C102.321 15.0813 100.893 14.708 99.3068 14.708C98.2801 14.708 97.4961 14.8667 96.9548 15.184C96.4321 15.4827 96.1708 15.884 96.1708 16.388C96.1708 16.948 96.4508 17.3493 97.0108 17.592C97.5894 17.816 98.4761 18.0307 99.6708 18.236C100.865 18.4227 101.845 18.6373 102.611 18.88C103.376 19.1227 104.029 19.5333 104.571 20.112C105.131 20.6907 105.411 21.512 105.411 22.576C105.411 23.976 104.804 25.096 103.591 25.936C102.377 26.776 100.725 27.196 98.6348 27.196ZM115.145 27.196C113.633 27.196 112.27 26.8693 111.057 26.216C109.844 25.5627 108.892 24.6573 108.201 23.5C107.529 22.324 107.193 20.9987 107.193 19.524C107.193 18.0493 107.529 16.7333 108.201 15.576C108.892 14.4187 109.844 13.5133 111.057 12.86C112.27 12.2067 113.633 11.88 115.145 11.88C116.676 11.88 118.048 12.2067 119.261 12.86C120.474 13.5133 121.417 14.4187 122.089 15.576C122.78 16.7333 123.125 18.0493 123.125 19.524C123.125 20.9987 122.78 22.324 122.089 23.5C121.417 24.6573 120.474 25.5627 119.261 26.216C118.048 26.8693 116.676 27.196 115.145 27.196ZM115.145 24.2C116.433 24.2 117.497 23.7707 118.337 22.912C119.177 22.0533 119.597 20.924 119.597 19.524C119.597 18.124 119.177 16.9947 118.337 16.136C117.497 15.2773 116.433 14.848 115.145 14.848C113.857 14.848 112.793 15.2773 111.953 16.136C111.132 16.9947 110.721 18.124 110.721 19.524C110.721 20.924 111.132 22.0533 111.953 22.912C112.793 23.7707 113.857 24.2 115.145 24.2ZM134.956 11.88C136.841 11.88 138.353 12.4307 139.492 13.532C140.63 14.6333 141.2 16.2667 141.2 18.432V27H137.7V18.88C137.7 17.5733 137.392 16.5933 136.776 15.94C136.16 15.268 135.282 14.932 134.144 14.932C132.856 14.932 131.838 15.324 131.092 16.108C130.345 16.8733 129.972 17.984 129.972 19.44V27H126.472V12.048H129.804V13.98C130.382 13.2893 131.11 12.7667 131.988 12.412C132.865 12.0573 133.854 11.88 134.956 11.88ZM162.786 27.28C160.807 27.28 159.015 26.8507 157.41 25.992C155.823 25.1147 154.573 23.9107 153.658 22.38C152.762 20.8493 152.314 19.1227 152.314 17.2C152.314 15.2773 152.771 13.5507 153.686 12.02C154.601 10.4893 155.851 9.29467 157.438 8.436C159.043 7.55867 160.835 7.12 162.814 7.12C164.419 7.12 165.885 7.4 167.21 7.96C168.535 8.52 169.655 9.332 170.57 10.396L168.218 12.608C166.799 11.0773 165.054 10.312 162.982 10.312C161.638 10.312 160.434 10.6107 159.37 11.208C158.306 11.7867 157.475 12.5987 156.878 13.644C156.281 14.6893 155.982 15.8747 155.982 17.2C155.982 18.5253 156.281 19.7107 156.878 20.756C157.475 21.8013 158.306 22.6227 159.37 23.22C160.434 23.7987 161.638 24.088 162.982 24.088C165.054 24.088 166.799 23.3133 168.218 21.764L170.57 24.004C169.655 25.068 168.526 25.88 167.182 26.44C165.857 27 164.391 27.28 162.786 27.28ZM182.206 11.88C184.091 11.88 185.603 12.4307 186.742 13.532C187.88 14.6333 188.45 16.2667 188.45 18.432V27H184.95V18.88C184.95 17.5733 184.642 16.5933 184.026 15.94C183.41 15.268 182.532 14.932 181.394 14.932C180.106 14.932 179.088 15.324 178.342 16.108C177.595 16.8733 177.222 17.984 177.222 19.44V27H173.722V6.224H177.222V13.784C177.8 13.168 178.51 12.7013 179.35 12.384C180.208 12.048 181.16 11.88 182.206 11.88ZM198.602 11.88C200.804 11.88 202.484 12.412 203.642 13.476C204.818 14.5213 205.406 16.108 205.406 18.236V27H202.102V25.18C201.672 25.8333 201.056 26.3373 200.254 26.692C199.47 27.028 198.518 27.196 197.398 27.196C196.278 27.196 195.298 27.0093 194.458 26.636C193.618 26.244 192.964 25.712 192.498 25.04C192.05 24.3493 191.826 23.5747 191.826 22.716C191.826 21.372 192.32 20.2987 193.31 19.496C194.318 18.6747 195.895 18.264 198.042 18.264H201.906V18.04C201.906 16.9947 201.588 16.192 200.954 15.632C200.338 15.072 199.414 14.792 198.182 14.792C197.342 14.792 196.511 14.9227 195.69 15.184C194.887 15.4453 194.206 15.8093 193.646 16.276L192.274 13.728C193.058 13.1307 194 12.6733 195.102 12.356C196.203 12.0387 197.37 11.88 198.602 11.88ZM198.126 24.648C199.003 24.648 199.778 24.452 200.45 24.06C201.14 23.6493 201.626 23.0707 201.906 22.324V20.588H198.294C196.278 20.588 195.27 21.2507 195.27 22.576C195.27 23.2107 195.522 23.7147 196.026 24.088C196.53 24.4613 197.23 24.648 198.126 24.648ZM223.624 12.048L217.212 27H213.6L207.188 12.048H210.828L215.476 23.136L220.264 12.048H223.624ZM239.457 19.608C239.457 19.8507 239.439 20.196 239.401 20.644H227.669C227.875 21.7453 228.407 22.6227 229.265 23.276C230.143 23.9107 231.225 24.228 232.513 24.228C234.156 24.228 235.509 23.6867 236.573 22.604L238.449 24.76C237.777 25.5627 236.928 26.1693 235.901 26.58C234.875 26.9907 233.717 27.196 232.429 27.196C230.787 27.196 229.34 26.8693 228.089 26.216C226.839 25.5627 225.868 24.6573 225.177 23.5C224.505 22.324 224.169 20.9987 224.169 19.524C224.169 18.068 224.496 16.7613 225.149 15.604C225.821 14.428 226.745 13.5133 227.921 12.86C229.097 12.2067 230.423 11.88 231.897 11.88C233.353 11.88 234.651 12.2067 235.789 12.86C236.947 13.4947 237.843 14.4 238.477 15.576C239.131 16.7333 239.457 18.0773 239.457 19.608ZM231.897 14.68C230.777 14.68 229.825 15.016 229.041 15.688C228.276 16.3413 227.809 17.2187 227.641 18.32H236.125C235.976 17.2373 235.519 16.36 234.753 15.688C233.988 15.016 233.036 14.68 231.897 14.68ZM247.439 27.196C246.226 27.196 245.041 27.0373 243.883 26.72C242.726 26.4027 241.802 26.0013 241.111 25.516L242.455 22.856C243.127 23.304 243.93 23.668 244.863 23.948C245.815 24.2093 246.749 24.34 247.663 24.34C249.754 24.34 250.799 23.7893 250.799 22.688C250.799 22.1653 250.529 21.8013 249.987 21.596C249.465 21.3907 248.615 21.1947 247.439 21.008C246.207 20.8213 245.199 20.6067 244.415 20.364C243.65 20.1213 242.978 19.7013 242.399 19.104C241.839 18.488 241.559 17.6387 241.559 16.556C241.559 15.1373 242.147 14.008 243.323 13.168C244.518 12.3093 246.123 11.88 248.139 11.88C249.166 11.88 250.193 12.0013 251.219 12.244C252.246 12.468 253.086 12.776 253.739 13.168L252.395 15.828C251.126 15.0813 249.698 14.708 248.111 14.708C247.085 14.708 246.301 14.8667 245.759 15.184C245.237 15.4827 244.975 15.884 244.975 16.388C244.975 16.948 245.255 17.3493 245.815 17.592C246.394 17.816 247.281 18.0307 248.475 18.236C249.67 18.4227 250.65 18.6373 251.415 18.88C252.181 19.1227 252.834 19.5333 253.375 20.112C253.935 20.6907 254.215 21.512 254.215 22.576C254.215 23.976 253.609 25.096 252.395 25.936C251.182 26.776 249.53 27.196 247.439 27.196Z" fill="#004F99"/>
<line x1="1" y1="38.5" x2="255" y2="38.5" stroke="#003566"/>
<path d="M23.7033 49L19.0633 63H16.3033L12.8433 52.64L9.32328 63H6.54328L1.90328 49H4.60328L8.08328 59.64L11.7033 49H14.1033L17.6433 59.7L21.2233 49H23.7033ZM44.3214 60.82V63H33.8214V49H44.0414V51.18H36.4214V54.82H43.1814V56.96H36.4214V60.82H44.3214ZM65.1398 55.72C65.9132 55.9733 66.5265 56.4 66.9798 57C67.4332 57.5867 67.6598 58.32 67.6598 59.2C67.6598 60.4133 67.1932 61.3533 66.2598 62.02C65.3265 62.6733 63.9665 63 62.1798 63H55.2198V49H61.7798C63.4332 49 64.7065 49.3267 65.5998 49.98C66.4932 50.62 66.9398 51.5067 66.9398 52.64C66.9398 53.3333 66.7798 53.9467 66.4598 54.48C66.1398 55.0133 65.6998 55.4267 65.1398 55.72ZM57.8198 51.04V54.9H61.4998C62.4065 54.9 63.0998 54.74 63.5798 54.42C64.0732 54.0867 64.3198 53.6067 64.3198 52.98C64.3198 52.34 64.0732 51.86 63.5798 51.54C63.0998 51.2067 62.4065 51.04 61.4998 51.04H57.8198ZM62.0198 60.96C64.0332 60.96 65.0398 60.2867 65.0398 58.94C65.0398 57.5933 64.0332 56.92 62.0198 56.92H57.8198V60.96H62.0198ZM91.962 49H98.082C99.5754 49 100.902 49.2933 102.062 49.88C103.222 50.4533 104.122 51.2733 104.762 52.34C105.402 53.3933 105.722 54.6133 105.722 56C105.722 57.3867 105.402 58.6133 104.762 59.68C104.122 60.7333 103.222 61.5533 102.062 62.14C100.902 62.7133 99.5754 63 98.082 63H91.962V49ZM97.962 60.8C98.9887 60.8 99.8887 60.6067 100.662 60.22C101.449 59.82 102.049 59.26 102.462 58.54C102.889 57.8067 103.102 56.96 103.102 56C103.102 55.04 102.889 54.2 102.462 53.48C102.049 52.7467 101.449 52.1867 100.662 51.8C99.8887 51.4 98.9887 51.2 97.962 51.2H94.562V60.8H97.962ZM126.985 60.82V63H116.485V49H126.705V51.18H119.085V54.82H125.845V56.96H119.085V60.82H126.985ZM142.224 63.2C141.144 63.2 140.097 63.0467 139.084 62.74C138.084 62.4333 137.291 62.0267 136.704 61.52L137.604 59.5C138.177 59.9533 138.877 60.3267 139.704 60.62C140.544 60.9 141.384 61.04 142.224 61.04C143.264 61.04 144.037 60.8733 144.544 60.54C145.064 60.2067 145.324 59.7667 145.324 59.22C145.324 58.82 145.177 58.4933 144.884 58.24C144.604 57.9733 144.244 57.7667 143.804 57.62C143.364 57.4733 142.764 57.3067 142.004 57.12C140.937 56.8667 140.071 56.6133 139.404 56.36C138.751 56.1067 138.184 55.7133 137.704 55.18C137.237 54.6333 137.004 53.9 137.004 52.98C137.004 52.2067 137.211 51.5067 137.624 50.88C138.051 50.24 138.684 49.7333 139.524 49.36C140.377 48.9867 141.417 48.8 142.644 48.8C143.497 48.8 144.337 48.9067 145.164 49.12C145.991 49.3333 146.704 49.64 147.304 50.04L146.484 52.06C145.871 51.7 145.231 51.4267 144.564 51.24C143.897 51.0533 143.251 50.96 142.624 50.96C141.597 50.96 140.831 51.1333 140.324 51.48C139.831 51.8267 139.584 52.2867 139.584 52.86C139.584 53.26 139.724 53.5867 140.004 53.84C140.297 54.0933 140.664 54.2933 141.104 54.44C141.544 54.5867 142.144 54.7533 142.904 54.94C143.944 55.18 144.797 55.4333 145.464 55.7C146.131 55.9533 146.697 56.3467 147.164 56.88C147.644 57.4133 147.884 58.1333 147.884 59.04C147.884 59.8133 147.671 60.5133 147.244 61.14C146.831 61.7667 146.197 62.2667 145.344 62.64C144.491 63.0133 143.451 63.2 142.224 63.2ZM158.462 49H161.062V63H158.462V49ZM182.409 55.84H184.869V61.42C184.149 61.9933 183.309 62.4333 182.349 62.74C181.389 63.0467 180.402 63.2 179.389 63.2C177.962 63.2 176.675 62.8933 175.529 62.28C174.382 61.6533 173.482 60.7933 172.829 59.7C172.175 58.6067 171.849 57.3733 171.849 56C171.849 54.6267 172.175 53.3933 172.829 52.3C173.482 51.2067 174.382 50.3533 175.529 49.74C176.689 49.1133 177.989 48.8 179.429 48.8C180.602 48.8 181.669 48.9933 182.629 49.38C183.589 49.7667 184.395 50.3333 185.049 51.08L183.409 52.68C182.342 51.6133 181.055 51.08 179.549 51.08C178.562 51.08 177.682 51.2867 176.909 51.7C176.149 52.1133 175.549 52.6933 175.109 53.44C174.682 54.1867 174.469 55.04 174.469 56C174.469 56.9333 174.682 57.7733 175.109 58.52C175.549 59.2667 176.149 59.8533 176.909 60.28C177.682 60.7067 178.555 60.92 179.529 60.92C180.622 60.92 181.582 60.68 182.409 60.2V55.84ZM208.738 49V63H206.598L198.878 53.52V63H196.298V49H198.438L206.158 58.48V49H208.738ZM230.989 60.82V63H220.489V49H230.709V51.18H223.089V54.82H229.849V56.96H223.089V60.82H230.989ZM251.048 63L248.188 58.9C248.068 58.9133 247.888 58.92 247.648 58.92H244.488V63H241.888V49H247.648C248.861 49 249.914 49.2 250.808 49.6C251.714 50 252.408 50.5733 252.888 51.32C253.368 52.0667 253.608 52.9533 253.608 53.98C253.608 55.0333 253.348 55.94 252.828 56.7C252.321 57.46 251.588 58.0267 250.628 58.4L253.848 63H251.048ZM250.988 53.98C250.988 53.0867 250.694 52.4 250.108 51.92C249.521 51.44 248.661 51.2 247.528 51.2H244.488V56.78H247.528C248.661 56.78 249.521 56.54 250.108 56.06C250.694 55.5667 250.988 54.8733 250.988 53.98Z" fill="#003566"/>
</svg>
